<?xml version="1.0" encoding="UTF-8"?>
<svg width="256" height="256" clip-rule="evenodd" fill-rule="evenodd" image-rendering="optimizeQuality" shape-rendering="geometricPrecision" text-rendering="geometricPrecision" version="1.1" viewBox="0 0 67.7 67.7" xml:space="preserve" xmlns="http://www.w3.org/2000/svg">

<circle cx="33.9" cy="33.9" r="33.9" fill="#b1e5de"/>
<g fill="#323232">
<path d="m11.2 47.1c0.184 5.17 9.46 6.83 14.1 7.17 17 1.26 37.6-6.95 36.7-10.6-0.275-1.05-8.99 0.683-15.2-0.744-8.19-1.87-14-5.99-19.9-5.86-6.99 0.156-15.9 3.74-15.6 9.99z" style="mix-blend-mode:normal"/>
<path d="m15.2 33.7c-0.183-0.184-0.246-0.224-0.244-0.733 0.0055-1.23 0.03-4.35 0.0432-7.87 0.024-6.38 6.32-12.1 14.2-12.2 8.06-0.0715 13.5 7.41 13.6 12.2 0.0396 1.33 0.0501 2.9 0.0527 3.74 0.0016 0.374-0.0662 0.483-0.0662 0.483s-0.0863 0.202-0.33 0.319c-0.62 0.297-1.82 0.824-2.58 0.823-0.919-0.0014-2.42-0.687-3.09-1.02-0.211-0.104-0.255-0.243-0.255-0.243s-0.0765-0.13-0.0714-0.46c9e-3 -0.571-0.0151-1.53-0.0206-2.51-0.0108-1.94-2.15-6.81-7.31-6.89-5-0.0847-7.65 4.3-7.77 6.68-0.141 3.01-0.0236 7-0.0236 7s0.0296 0.507-0.159 0.694c-0.145 0.144-0.461 0.104-0.461 0.104h-5.16c-0.22-0.0503-0.296 0.0166-0.436-0.114z"/>
</g>
</svg>
